<svg id="Layer_1" data-name="Layer 1" xmlns="http://www.w3.org/2000/svg" viewBox="0 0 424.34 180.33"><defs><style>.cls-1{fill:#0d2a4a;}.cls-2{fill:#424343;}.cls-3{fill:#f390b9;}.cls-4{fill:#fad179;}.cls-5{fill:#bad988;}.cls-6{fill:#8fd8f8;}</style></defs><path class="cls-1" d="M30.27,115.34V74.68h18a11.55,11.55,0,0,1,5.18,1.17,13.35,13.35,0,0,1,4.1,3.09,14.75,14.75,0,0,1,2.69,4.35,13.12,13.12,0,0,1,1,4.9,13.58,13.58,0,0,1-2,7.19,11.4,11.4,0,0,1-5.36,4.67l9.28,15.29H54.26L46,101.71H38.17v13.63Zm7.9-20.56h9.91a4.12,4.12,0,0,0,2-.52,5.18,5.18,0,0,0,1.63-1.4,7,7,0,0,0,1.09-2.09,8,8,0,0,0,.4-2.58,7.23,7.23,0,0,0-.46-2.63,6.67,6.67,0,0,0-1.23-2.09,5.7,5.7,0,0,0-1.77-1.38,4.69,4.69,0,0,0-2-.48H38.17Z"/><path class="cls-1" d="M82.78,74.68h7l15.47,40.66H97.09L93.31,105.2H79.11l-3.72,10.14H67.26Zm9.1,25-5.61-16-5.84,16Z"/><path class="cls-1" d="M117,89.28v26.06h-7.9V74.68h6.13l21.19,26.68V74.73h7.9v40.61h-6.41Z"/><path class="cls-1" d="M150,115.34V74.68h14.77a22.09,22.09,0,0,1,8.74,1.6,17.55,17.55,0,0,1,10.05,10.79A24.28,24.28,0,0,1,184.79,95a23.7,23.7,0,0,1-1.41,8.39,17.85,17.85,0,0,1-4,6.41,18.29,18.29,0,0,1-6.33,4.13,22.41,22.41,0,0,1-8.28,1.46ZM176.83,95a17.4,17.4,0,0,0-.8-5.38,12,12,0,0,0-2.35-4.24,10.37,10.37,0,0,0-3.81-2.75,12.86,12.86,0,0,0-5.13-1h-6.87v26.8h6.87a12.52,12.52,0,0,0,5.19-1,10.83,10.83,0,0,0,3.78-2.84,12.65,12.65,0,0,0,2.32-4.27A17.19,17.19,0,0,0,176.83,95Z"/><path class="cls-1" d="M207,115.62a18.5,18.5,0,0,1-8.1-1.74,20,20,0,0,1-6.25-4.64A21.65,21.65,0,0,1,187.17,95a20.48,20.48,0,0,1,1.52-7.79,21.61,21.61,0,0,1,4.18-6.59,20.08,20.08,0,0,1,6.33-4.55,18.73,18.73,0,0,1,8-1.69,17.92,17.92,0,0,1,8.05,1.8,20.24,20.24,0,0,1,6.21,4.73,21.67,21.67,0,0,1,4,6.64,21,21,0,0,1,1.43,7.56,20.41,20.41,0,0,1-1.49,7.76,21,21,0,0,1-4.12,6.53,19.8,19.8,0,0,1-6.3,4.52A18.73,18.73,0,0,1,207,115.62ZM195.19,95a16.47,16.47,0,0,0,.8,5.09,13.7,13.7,0,0,0,2.32,4.36,11.48,11.48,0,0,0,3.73,3,11.48,11.48,0,0,0,10.08,0,11.56,11.56,0,0,0,3.72-3.12,14.09,14.09,0,0,0,2.29-4.38A16.4,16.4,0,0,0,218.9,95a15.94,15.94,0,0,0-.83-5.1,14,14,0,0,0-2.35-4.35,11.13,11.13,0,0,0-3.72-3,11.56,11.56,0,0,0-10.05.06,11.2,11.2,0,0,0-3.72,3.09A13.65,13.65,0,0,0,196,90.05,16.21,16.21,0,0,0,195.19,95Z"/><path class="cls-1" d="M263.82,115.34V88.42l-10.48,20h-4.29l-10.48-20v26.92h-7.9V74.68h8.47l12,23.13,12.14-23.13h8.42v40.66Z"/><path class="cls-2" d="M285.23,75.21h3.23l-1.33,5.93a16.59,16.59,0,0,1,5.05-4.68,11.58,11.58,0,0,1,5.92-1.7,5.68,5.68,0,0,1,4.59,1.78,7.57,7.57,0,0,1,1.51,5,16.35,16.35,0,0,1,5.2-5.1,11.74,11.74,0,0,1,6-1.73q3.22,0,4.59,1.7a7.46,7.46,0,0,1,1.36,4.73,22.38,22.38,0,0,1-.62,4.88l-3.33,15.32h-3.49l3.13-14.62a22,22,0,0,0,.38-2.19,14.39,14.39,0,0,0,.13-1.88q0-4.83-4.05-4.83a7.72,7.72,0,0,0-2.84.56A10.52,10.52,0,0,0,308,80a15,15,0,0,0-2.38,2.39,16.3,16.3,0,0,0-1.92,3l-3.44,16h-3.48l3.12-14.62c.17-.84.31-1.6.41-2.29a11.92,11.92,0,0,0,.16-1.88q0-4.72-4-4.73a9,9,0,0,0-5.54,2.06,15.65,15.65,0,0,0-4.36,5.43l-3.43,16h-3.49Z"/><path class="cls-2" d="M334.91,101.9a8.88,8.88,0,0,1-4-.88,9.07,9.07,0,0,1-3-2.39,10.65,10.65,0,0,1-1.87-3.49,13.52,13.52,0,0,1-.64-4.2,15.34,15.34,0,0,1,1.23-6,18.17,18.17,0,0,1,3.28-5.18,16.39,16.39,0,0,1,4.72-3.62,12.19,12.19,0,0,1,5.59-1.35,8.08,8.08,0,0,1,5.33,1.73,9.49,9.49,0,0,1,3,4.2l1.23-5.48h3.49l-4.72,21.71a2.71,2.71,0,0,0-.1.65c0,.54.32.81,1,.81l-.66,3-.77.11a5.28,5.28,0,0,1-.62,0,3,3,0,0,1-1.77-.63,1.78,1.78,0,0,1-.59-1.39,6.41,6.41,0,0,1,.13-1c.09-.44.23-1.16.44-2.16a15.44,15.44,0,0,1-4.95,4.07A12.39,12.39,0,0,1,334.91,101.9Zm1.44-3a8.84,8.84,0,0,0,2.77-.5A13.07,13.07,0,0,0,342,97a13.58,13.58,0,0,0,2.47-2.06A7.83,7.83,0,0,0,346,92.4l1.69-8.09a6.44,6.44,0,0,0-.82-2.54,7.89,7.89,0,0,0-1.64-2.06,7.8,7.8,0,0,0-2.2-1.41,6.5,6.5,0,0,0-2.57-.53,9,9,0,0,0-4.38,1.13,13.09,13.09,0,0,0-3.64,2.94A15,15,0,0,0,330,85.91a12,12,0,0,0-.92,4.53,10.36,10.36,0,0,0,.51,3.29,7.77,7.77,0,0,0,1.49,2.66,7.4,7.4,0,0,0,2.31,1.81A6.31,6.31,0,0,0,336.35,98.88Z"/><path class="cls-2" d="M361.73,101.7a5.26,5.26,0,0,1-3.21-.93,3.32,3.32,0,0,1-1.25-2.84,6.13,6.13,0,0,1,.15-1.26l4.05-18.75h-3.53l.61-2.71H362L364,66.36h3.48l-2,8.85h5.85l-.62,2.71H365l-3.69,17c-.07.37-.13.65-.18.86a2.28,2.28,0,0,0-.08.55,1.89,1.89,0,0,0,.72,1.66,3,3,0,0,0,1.74.5,6.76,6.76,0,0,0,2.57-.48,16.56,16.56,0,0,0,1.54-.68l.3,2.77a10.38,10.38,0,0,1-2.38,1A12.22,12.22,0,0,1,361.73,101.7Z"/><path class="cls-2" d="M379.68,64.7h3.48l-3.59,16.44a16.13,16.13,0,0,1,5.21-4.68,12.59,12.59,0,0,1,6.18-1.7c2.18,0,3.75.59,4.69,1.78a7.7,7.7,0,0,1,1.41,4.9,22.59,22.59,0,0,1-.57,4.63l-3.28,15.32h-3.48l3.18-14.62a19.13,19.13,0,0,0,.46-3.82c0-3.39-1.46-5.08-4.36-5.08a8,8,0,0,0-2.87.58,13.52,13.52,0,0,0-2.9,1.58,15.29,15.29,0,0,0-2.61,2.37,12.36,12.36,0,0,0-2,3l-3.43,16h-3.49Z"/><rect class="cls-3" x="372.62" y="108.04" width="24.43" height="7.15" rx="2" transform="translate(-0.15 0.53) rotate(-0.08)"/><rect class="cls-4" x="279.59" y="108.17" width="24.43" height="7.15" rx="2" transform="translate(-0.15 0.4) rotate(-0.08)"/><rect class="cls-5" x="311.38" y="108.13" width="24.43" height="7.15" rx="2" transform="translate(-0.15 0.44) rotate(-0.08)"/><rect class="cls-6" x="342" y="108.08" width="24.43" height="7.15" rx="2" transform="translate(-0.15 0.49) rotate(-0.08)"/></svg>